<svg xmlns="http://www.w3.org/2000/svg" xmlns:xlink="http://www.w3.org/1999/xlink" version="1.1" x="0px" y="0px" viewBox="0 0 100 125" enable-background="new 0 0 100 100" xml:space="preserve"><g display="none"><g display="inline" opacity="0.2"><path fill="none" stroke="#000000" stroke-width="4" stroke-linecap="round" stroke-linejoin="round" stroke-miterlimit="10" d="    M82.48,29.913c-0.061,0-0.117,0.007-0.176,0.009c0-0.004,0.002-0.006,0.002-0.009c0-11.863-9.617-21.479-21.48-21.479    c-8.662,0-16.109,5.139-19.504,12.526c-2.26-1.192-4.83-1.874-7.562-1.874c-7.084,0-13.094,4.546-15.314,10.874    c-0.305-0.025-0.611-0.046-0.926-0.046c-5.979,0-10.826,4.847-10.826,10.826s4.848,10.827,10.826,10.827H82.48    c5.979,0,10.826-4.848,10.826-10.827S88.459,29.913,82.48,29.913z"/><g><line fill="none" stroke="#000000" stroke-width="4" stroke-linecap="round" stroke-linejoin="round" stroke-miterlimit="10" x1="27" y1="60" x2="27" y2="62.25"/><line fill="none" stroke="#000000" stroke-width="4" stroke-linecap="round" stroke-linejoin="round" stroke-miterlimit="10" x1="37" y1="60" x2="37" y2="62.25"/><line fill="none" stroke="#000000" stroke-width="4" stroke-linecap="round" stroke-linejoin="round" stroke-miterlimit="10" x1="47" y1="60" x2="47" y2="62.25"/><line fill="none" stroke="#000000" stroke-width="4" stroke-linecap="round" stroke-linejoin="round" stroke-miterlimit="10" x1="57" y1="60" x2="57" y2="62.25"/><line fill="none" stroke="#000000" stroke-width="4" stroke-linecap="round" stroke-linejoin="round" stroke-miterlimit="10" x1="67" y1="60" x2="67" y2="62.25"/><line fill="none" stroke="#000000" stroke-width="4" stroke-linecap="round" stroke-linejoin="round" stroke-miterlimit="10" x1="73" y1="70" x2="73" y2="72.25"/><line fill="none" stroke="#000000" stroke-width="4" stroke-linecap="round" stroke-linejoin="round" stroke-miterlimit="10" x1="63" y1="70" x2="63" y2="72.25"/><line fill="none" stroke="#000000" stroke-width="4" stroke-linecap="round" stroke-linejoin="round" stroke-miterlimit="10" x1="53" y1="70" x2="53" y2="72.25"/><line fill="none" stroke="#000000" stroke-width="4" stroke-linecap="round" stroke-linejoin="round" stroke-miterlimit="10" x1="43" y1="70" x2="43" y2="72.25"/><line fill="none" stroke="#000000" stroke-width="4" stroke-linecap="round" stroke-linejoin="round" stroke-miterlimit="10" x1="33" y1="70" x2="33" y2="72.25"/><line fill="none" stroke="#000000" stroke-width="4" stroke-linecap="round" stroke-linejoin="round" stroke-miterlimit="10" x1="67" y1="80" x2="67" y2="82.25"/><line fill="none" stroke="#000000" stroke-width="4" stroke-linecap="round" stroke-linejoin="round" stroke-miterlimit="10" x1="57" y1="80" x2="57" y2="82.25"/><line fill="none" stroke="#000000" stroke-width="4" stroke-linecap="round" stroke-linejoin="round" stroke-miterlimit="10" x1="47" y1="80" x2="47" y2="82.25"/><line fill="none" stroke="#000000" stroke-width="4" stroke-linecap="round" stroke-linejoin="round" stroke-miterlimit="10" x1="37" y1="80" x2="37" y2="82.25"/><line fill="none" stroke="#000000" stroke-width="4" stroke-linecap="round" stroke-linejoin="round" stroke-miterlimit="10" x1="27" y1="80" x2="27" y2="82.25"/></g></g></g><g><g><g><path d="M14.848,48.331c-4.325-1.416-4.297-8.286-3.571-11.936c0.79-3.973,5.272-3.87,8.474-3.895c2.9-0.023,2.902-4.523,0-4.5     c-5.689,0.045-11.038,1.102-12.812,7.199c-1.793,6.16,0.025,15.282,6.715,17.471C16.418,53.575,17.593,49.229,14.848,48.331     L14.848,48.331z"/></g></g><g><g><path d="M20.942,30.886c1.538-2.887,2.984-5.391,5.86-7.127c3.936-2.376,9.508-2.784,13.85-1.589     c2.802,0.772,3.99-3.57,1.195-4.339c-5.189-1.429-10.749-0.792-15.683,1.266c-4.472,1.865-6.907,5.386-9.107,9.518     C15.693,31.174,19.578,33.448,20.942,30.886L20.942,30.886z"/></g></g><g><g><path d="M43.841,21.591c6.746-6.413,14.076-10.839,23.734-9.176c3.965,0.683,8.418,4.53,11.303,7.145     c1.071,0.971,4.608,7.778,4.456,9.459c0.372-0.647,0.743-1.295,1.115-1.943c-0.112,0.077-0.224,0.154-0.335,0.231     c-2.368,1.64-0.121,5.542,2.271,3.886c3.451-2.389-0.256-6.502-1.216-9.291c-1.99-5.778-7.172-9.164-12.253-12.22     C61.807,3,48.674,10.79,40.659,18.409C38.552,20.412,41.739,23.589,43.841,21.591L43.841,21.591z"/></g></g><g><g><path d="M16,53.25c12.901,0.713,25.871-0.611,38.751,0.376c8.23,0.631,16.596,1.846,24.824,0.511     c7.437-1.207,13.807-4.586,16.345-12.04c2.434-7.15-4.049-15.413-11.42-14.598c-2.852,0.315-2.882,4.818,0,4.5     c4.568-0.505,7.146,3.208,7.3,7.437c0.118,3.216-2.651,6.118-5.127,7.714c-5.411,3.489-13,3.207-19.161,2.972     c-6.705-0.256-13.336-1.161-20.054-1.257C36.967,48.715,26.486,49.33,16,48.75C13.1,48.59,13.114,53.09,16,53.25L16,53.25z"/></g></g><g><g><path d="M24.83,58.902c-0.396,1.766-0.156,4.013,1.534,5.041c1.049,0.638,2.467,0.236,3.078-0.807     c0.628-1.072,0.239-2.442-0.807-3.079c0.232,0.141,0.416,0.329,0.55,0.564c-0.039-0.06-0.074-0.122-0.104-0.187     c0.315,0.616,0.088,0.146,0.045-0.069c0.136,0.682,0.026,0.061,0.027-0.126c0.002-0.1,0.009-0.2,0.02-0.299     c-0.052,0.35-0.053,0.402-0.003,0.158c0.268-1.196-0.348-2.431-1.572-2.768C26.46,57.017,25.099,57.705,24.83,58.902     L24.83,58.902z"/></g></g><g><g><path d="M35,60.5c0,0.362-0.004,0.724-0.021,1.086c-0.007,0.138-0.105,0.876-0.005,0.214c-0.031,0.205-0.084,0.404-0.145,0.602     c-0.359,1.172,0.416,2.45,1.572,2.768c1.208,0.333,2.408-0.4,2.768-1.571c0.305-0.993,0.33-2.066,0.33-3.098     c0.001-1.227-1.023-2.25-2.25-2.25S35.001,59.273,35,60.5L35,60.5z"/></g></g><g><g><path d="M44.58,58.402c-0.351,1.078-0.562,2.213-0.58,3.348C43.98,62.977,45.039,64,46.25,64c1.241,0,2.23-1.024,2.25-2.25     c0.003-0.2,0.013-0.398,0.028-0.598c0.028-0.267,0.027-0.263-0.005,0.012c0.021-0.126,0.045-0.252,0.071-0.378     c0.081-0.403,0.198-0.798,0.325-1.188c0.38-1.167-0.431-2.454-1.572-2.768C46.124,56.494,44.96,57.237,44.58,58.402L44.58,58.402     z"/></g></g><g><g><path d="M54,60.75c0.001,1.029,0.124,1.942,0.558,2.886c0.511,1.115,2.1,1.38,3.078,0.807c1.135-0.665,1.318-1.964,0.807-3.079     c0.129,0.331,0.156,0.384,0.083,0.159c-0.143-0.464,0.039,0.56-0.008,0.052c-0.024-0.273-0.018-0.551-0.018-0.825     c-0.001-1.227-1.022-2.25-2.25-2.25C55.024,58.5,53.999,59.523,54,60.75L54,60.75z"/></g></g><g><g><path d="M65.25,59c0,0.667,0,1.333,0,2c0,1.227,1.023,2.25,2.25,2.25s2.25-1.023,2.25-2.25c0-0.667,0-1.333,0-2     c0-1.227-1.023-2.25-2.25-2.25S65.25,57.773,65.25,59L65.25,59z"/></g></g><g><g><path d="M30.5,70.25c0.014,0.51,0.092,1.015,0.175,1.518c0.027,0.169,0.061,0.338,0.091,0.506     c0.097,0.54-0.034-0.505-0.016-0.024c0.046,1.225,0.988,2.25,2.25,2.25c1.191,0,2.297-1.024,2.25-2.25     c-0.017-0.448-0.096-0.895-0.175-1.335c-0.03-0.174-0.062-0.348-0.091-0.522c0.093,0.564,0.019-0.04,0.016-0.143     C34.968,69.024,34.001,68,32.75,68C31.548,68,30.468,69.023,30.5,70.25L30.5,70.25z"/></g></g><g><g><path d="M40.25,69.5c0,1,0,2,0,3c0,1.227,1.023,2.25,2.25,2.25s2.25-1.023,2.25-2.25c0-1,0-2,0-3c0-1.227-1.023-2.25-2.25-2.25     S40.25,68.273,40.25,69.5L40.25,69.5z"/></g></g><g><g><path d="M50.5,69.75c0.001,0.877,0.065,1.756,0.33,2.598c0.368,1.169,1.554,1.906,2.768,1.571c1.15-0.316,1.94-1.598,1.572-2.768     c-0.052-0.164-0.219-1.083-0.139-0.402c-0.039-0.331-0.031-0.668-0.031-1c-0.001-1.227-1.022-2.25-2.25-2.25     C51.524,67.5,50.499,68.523,50.5,69.75L50.5,69.75z"/></g></g><g><g><path d="M60.08,69.848c0.041,0.124,0.076,0.249,0.105,0.375c0.155,0.607-0.027-0.464,0.033,0.152     c0.036,0.373,0.031,0.751,0.031,1.125c0.001,1.227,1.022,2.25,2.25,2.25c1.226,0,2.251-1.023,2.25-2.25     c-0.001-0.956-0.049-1.929-0.33-2.848c-0.359-1.172-1.561-1.904-2.768-1.571C60.495,67.398,59.721,68.676,60.08,69.848     L60.08,69.848z"/></g></g><g><g><path d="M70,69.25c0,0.667,0,1.333,0,2c0,1.227,1.023,2.25,2.25,2.25s2.25-1.023,2.25-2.25c0-0.667,0-1.333,0-2     c0-1.227-1.023-2.25-2.25-2.25S70,68.023,70,69.25L70,69.25z"/></g></g><g><g><path d="M24.33,81.098c0.041,0.124,0.076,0.249,0.105,0.375c0.155,0.607-0.027-0.464,0.033,0.152     c0.036,0.373,0.031,0.751,0.031,1.125c0.001,1.227,1.022,2.25,2.25,2.25c1.226,0,2.251-1.023,2.25-2.25     c-0.001-0.956-0.049-1.929-0.33-2.848c-0.359-1.172-1.561-1.904-2.768-1.571C24.745,78.648,23.971,79.926,24.33,81.098     L24.33,81.098z"/></g></g><g><g><path d="M35,79.5c0.001,1.465,0.063,2.903,0.33,4.348c0.224,1.207,1.663,1.875,2.768,1.571c1.258-0.346,1.795-1.563,1.572-2.768     c-0.18-0.968-0.17-2.104-0.17-3.152C39.499,76.598,34.999,76.598,35,79.5L35,79.5z"/></g></g><g><g><path d="M44.5,79.75c0,0.75,0,1.5,0,2.25c0,1.227,1.023,2.25,2.25,2.25S49,83.227,49,82c0-0.75,0-1.5,0-2.25     c0-1.227-1.023-2.25-2.25-2.25S44.5,78.523,44.5,79.75L44.5,79.75z"/></g></g><g><g><path d="M55,79.25c0,0.833,0,1.667,0,2.5c0,1.227,1.023,2.25,2.25,2.25s2.25-1.023,2.25-2.25c0-0.833,0-1.667,0-2.5     c0-1.227-1.023-2.25-2.25-2.25S55,78.023,55,79.25L55,79.25z"/></g></g><g><g><path d="M64.75,80.25c0,0.75,0,1.5,0,2.25c0,1.227,1.023,2.25,2.25,2.25s2.25-1.023,2.25-2.25c0-0.75,0-1.5,0-2.25     c0-1.227-1.023-2.25-2.25-2.25S64.75,79.023,64.75,80.25L64.75,80.25z"/></g></g></g><text x="0" y="115" fill="#000000" font-size="5px" font-weight="bold" font-family="'Helvetica Neue', Helvetica, Arial-Unicode, Arial, Sans-serif">Created by Linseed Studio</text><text x="0" y="120" fill="#000000" font-size="5px" font-weight="bold" font-family="'Helvetica Neue', Helvetica, Arial-Unicode, Arial, Sans-serif">from the Noun Project</text></svg>